<svg width="257" height="234" viewBox="0 0 257 234" fill="none" xmlns="http://www.w3.org/2000/svg">
<g id="books">
<g id="open_book">
<path id="Rectangle 79" d="M127.999 114.826V114.826C135.625 111.986 144.004 111.904 151.684 114.593L151.981 114.697V142.291L151.311 141.737C144.583 136.175 134.896 136.024 127.999 141.375V141.375V114.826Z" fill="#FADCB8"/>
<path id="Rectangle 80" d="M102.083 114.721V114.721C109.969 111.944 118.564 111.934 126.456 114.692L126.839 114.826V141.368V141.368C119.418 136.151 109.421 136.556 102.446 142.355L102.083 142.657V114.721Z" fill="#FADCB8"/>
<rect id="Rectangle 82" x="126.839" y="114.826" width="1.1604" height="26.7324" fill="#C7AB87"/>
<path id="Rectangle 81" d="M102.084 142.327L105.952 139.361L106.546 139.039C111.279 136.479 116.947 136.327 121.81 138.629V138.629L127.419 141.375L129.933 139.727L133.028 138.377V138.377C136.94 136.337 141.567 136.182 145.607 137.957L146.566 138.377V138.377C148.49 139.394 150.263 140.676 151.832 142.184L151.981 142.327V144.122L149.752 142.718C147.644 141.39 145.319 140.444 142.883 139.922V139.922C140.346 139.379 137.716 139.448 135.211 140.123L134.57 140.296C133.543 140.572 132.54 140.928 131.568 141.36L127.419 143.206L121.889 141.044C121.321 140.822 120.739 140.642 120.146 140.504L117.694 139.935C115.315 139.383 112.839 139.408 110.473 140.007V140.007C108.629 140.474 106.866 141.213 105.242 142.201L102.084 144.122V142.327Z" fill="#C2AC92"/>
<path id="Rectangle 82_2" d="M150.924 114.371L152.084 114.953V144.033L150.924 143.301V114.371Z" fill="#E5CAA7"/>
<path id="Rectangle 83" d="M102.187 114.953L103.347 114.371V143.258L102.187 144.033V114.953Z" fill="#E5CAA7"/>
</g>
<g id="purpleBook">
<path id="bridge" d="M185.084 110.942L205.504 229.586L201.787 228.593C199.618 228.013 197.39 227.695 195.153 227.645V227.645C192.567 227.586 189.999 227.989 187.571 228.833L187.102 228.996C185.433 229.576 183.855 230.38 182.41 231.387L179.163 233.649L158.742 115.006L161.706 112.828C163.319 111.643 165.08 110.669 166.947 109.93V109.93C169.449 108.939 172.135 108.465 174.844 108.535L175.49 108.552C178.204 108.622 180.888 109.196 183.406 110.243L185.084 110.942Z" fill="#AF1DFC"/>
<path id="b_color" d="M183.284 132.045L195.192 201.816V201.816C189.953 200.931 184.595 201.751 179.918 204.152V204.152L168.01 134.381V134.381C172.893 132.654 178.075 131.861 183.284 132.045V132.045Z" fill="#742399"/>
<path id="b_white" d="M179.694 114.36L181.311 123.756L180.621 123.679C175.606 123.118 170.555 123.96 166.041 126.112V126.112L164.423 116.716C164.423 116.716 168.567 114.643 171.455 114.147C174.614 113.604 179.694 114.36 179.694 114.36Z" fill="white"/>
<path id="pages" d="M198.517 207.202L202.201 228.61L201.879 228.498C195.196 226.163 187.833 227.36 182.35 231.673V231.673L178.665 210.265V210.265C184.782 207.672 191.467 206.61 198.142 207.171L198.517 207.202Z" fill="#FADCB8"/>
<path id="cover" d="M202.019 209.334L203.776 219.544L205.565 229.936L201.784 228.461L198.112 207.129L202.019 209.334Z" fill="#76269A"/>
<path id="cover_2" d="M178.77 210.356L180.918 222.835L182.431 231.629L179.145 233.545L175.624 213.091L178.77 210.356Z" fill="#76269A"/>
</g>
<g id="greenBook">
<path id="bridge_2" d="M70.285 107.801L127.246 0.366992L129.651 3.24619C131.042 4.91256 132.645 6.40277 134.422 7.68355V7.68355C136.483 9.16859 138.817 10.2709 141.31 10.9363L141.792 11.0647C143.498 11.5203 145.268 11.7448 147.051 11.7318L151.098 11.7023L94.1379 119.136L90.3705 119.255C88.3423 119.319 86.3209 119.13 84.3563 118.693V118.693C81.7116 118.105 79.2348 116.995 77.08 115.431L76.5658 115.057C74.418 113.498 72.6065 111.553 71.2271 109.323L70.285 107.801Z" fill="#519700"/>
<path id="b_color_2" d="M85.2761 91.4935L118.855 28.3708V28.3708C122.546 31.9922 127.403 34.3077 132.674 34.9595V34.9595L99.0946 98.0822V98.0822C94.0711 96.7703 89.3802 94.5337 85.2761 91.4935V91.4935Z" fill="#355E00"/>
<path id="b_white_2" d="M76.7684 108.026L81.2793 99.5175L81.7888 99.9618C85.5018 103.2 90.1215 105.325 95.1071 106.089V106.089L90.5961 114.597C90.5961 114.597 85.9562 113.975 83.3098 112.773C80.4143 111.458 76.7684 108.026 76.7684 108.026Z" fill="white"/>
<path id="pages_2" d="M119.039 22.3766L129.317 2.99127L129.515 3.26515C133.623 8.9366 140.487 12.1311 147.743 11.7475V11.7475L137.465 31.1328V31.1328C130.758 29.7674 124.536 26.8446 119.332 22.6144L119.039 22.3766Z" fill="#FADCB8"/>
<path id="cover_3" d="M117.4 18.9365L122.376 9.55186L127.44 -0.00031755L129.574 3.3216L119.179 22.9287L117.4 18.9365Z" fill="#396004"/>
<path id="cover_4" d="M137.349 31.127L143.349 19.8096L147.578 11.8333L151.004 11.9027L141.168 30.4536L137.349 31.127Z" fill="#396004"/>
</g>
<g id="pinkBook">
<path id="bridge_3" d="M160.698 173.802L48.1729 229.49L47.9953 225.773C47.8955 223.685 47.5171 221.611 46.8694 219.602V219.602C46.1099 217.246 44.8864 215.044 43.2669 213.117L42.9547 212.745C41.8604 211.443 40.5801 210.296 39.1536 209.34L35.8087 207.097L148.334 151.409L151.516 153.429C153.167 154.477 154.668 155.731 155.98 157.158V157.158C157.774 159.109 159.112 161.404 159.901 163.881L160.089 164.474C160.862 166.901 161.132 169.44 160.883 171.944L160.698 173.802Z" fill="#FF74A5"/>
<path id="b_color_3" d="M139.096 178.074L72.8912 210.732V210.732C72.1328 205.769 69.6038 201.174 65.7419 197.742V197.742L131.947 165.084V165.084C135.21 168.922 137.643 173.343 139.096 178.074V178.074Z" fill="#DF4184"/>
<path id="b_white_3" d="M155.574 170.034L146.663 174.444L146.525 173.808C145.511 169.135 143.06 164.831 139.495 161.463V161.463L148.407 157.052C148.407 157.052 151.788 160.124 153.195 162.563C154.733 165.231 155.574 170.034 155.574 170.034Z" fill="white"/>
<path id="pages_3" d="M68.4145 216.167L48.1105 226.215L48.1216 225.903C48.3571 219.228 44.7766 212.871 38.7926 209.34V209.34L59.0966 199.291V199.291C63.6096 203.96 66.7943 209.663 68.3289 215.823L68.4145 216.167Z" fill="#FADCB8"/>
<path id="cover_5" d="M67.0955 220.024L57.3875 224.829L47.5062 229.719L48.008 226.23L68.2906 216.192L67.0955 220.024Z" fill="#DF4385"/>
<path id="cover_6" d="M59.191 199.297L47.3251 205.169L38.9623 209.308L36.0444 207.033L55.4943 197.407L59.191 199.297Z" fill="#DF4385"/>
</g>
<g id="blueBook">
<path id="bridge_4" d="M90.9378 172.736L0.128114 88.7194L3.78179 87.4157C5.86416 86.6727 7.83982 85.6846 9.66222 84.4748V84.4748C11.7876 83.064 13.6132 81.2864 15.0433 79.2355L15.3192 78.8398C16.2917 77.4451 17.0508 75.9274 17.574 74.3317L18.7818 70.6481L109.592 154.664L108.558 158.128C108.012 159.957 107.213 161.71 106.182 163.341V163.341C104.783 165.554 102.902 167.461 100.666 168.934L100.132 169.286C97.9227 170.742 95.4363 171.778 92.811 172.337L90.9378 172.736Z" fill="#009DE3"/>
<path id="b_color_4" d="M78.8466 154.225L25.5252 104.76V104.76C30.2822 102.535 34.1007 98.8457 36.3538 94.2977V94.2977L89.6751 143.762V143.762C86.8306 147.892 83.1501 151.448 78.8466 154.225V154.225Z" fill="#006FAE"/>
<path id="b_white_4" d="M93.1332 166.956L85.9415 160.302L86.5403 159.979C90.9227 157.616 94.4752 154.085 96.7552 149.826V149.826L103.947 156.48C103.947 156.48 101.911 160.476 99.8979 162.498C97.6952 164.71 93.1332 166.956 93.1332 166.956Z" fill="white"/>
<path id="pages_4" d="M19.7831 102.808L3.39745 87.6478L3.71906 87.5596C10.5202 85.6953 15.7574 80.5365 17.4553 74.0288V74.0288L33.841 89.1887V89.1887C30.5485 94.7038 25.8185 99.3293 20.1028 102.623L19.7831 102.808Z" fill="#FADCB8"/>
<path id="cover_7" d="M15.6991 102.989L7.95468 95.8239L0.0719734 88.5309L4.02629 87.5812L20.2066 102.551L15.6991 102.989Z" fill="#0773B0"/>
<path id="cover_8" d="M33.9119 89.4287L24.2168 80.4589L17.3839 74.1372L18.7506 70.7935L34.6423 85.4963L33.9119 89.4287Z" fill="#0773B0"/>
</g>
<g id="orangeBook">
<path id="bridge_5" d="M129.723 70.8051L255.464 87.4998L253.314 90.6352C252.119 92.3785 251.156 94.2671 250.45 96.2526V96.2526C249.618 98.5903 249.259 101.062 249.392 103.525L249.417 104C249.507 105.656 249.841 107.287 250.409 108.84L251.757 112.522L126.016 95.8278L124.662 92.4122C123.969 90.6641 123.521 88.826 123.332 86.9494V86.9494C123.072 84.37 123.395 81.7569 124.278 79.3015L124.489 78.7141C125.349 76.3228 126.681 74.1213 128.406 72.2408L129.723 70.8051Z" fill="#E1AB00"/>
<path id="b_color_5" d="M150.593 79.0687L224.508 88.9778V88.9778C222.078 93.4261 221.308 98.5688 222.339 103.481V103.481L148.424 93.5719V93.5719C148.129 88.6546 148.867 83.7151 150.593 79.0687V79.0687Z" fill="#9A7100"/>
<path id="b_white_5" d="M131.574 76.6929L141.532 78.015L141.255 78.606C139.208 82.9621 138.555 87.8222 139.383 92.5209V92.5209L129.425 91.1988C129.425 91.1988 128.563 86.838 128.918 84.0798C129.306 81.0619 131.574 76.6929 131.574 76.6929Z" fill="white"/>
<path id="pages_5" d="M230.884 87.1945L254.194 90.2893L253.994 90.5301C249.633 95.7832 248.627 103.009 251.4 109.147V109.147L228.091 106.052V106.052C227.245 99.7738 228.162 93.3596 230.741 87.5185L230.884 87.1945Z" fill="#FADCB8"/>
<path id="cover_9" d="M234.826 84.7084L245.815 86.1674L257 87.6524L254.289 90.2902L231.275 87.6524L234.826 84.7084Z" fill="#9B7202"/>
<path id="cover_10" d="M227.587 105.948L241.48 107.793L251.272 109.093L252.336 112.427L229.563 109.403L227.587 105.948Z" fill="#9B7202"/>
</g>
</g>
</svg>
